<svg width="747" height="376" viewBox="0 0 747 376" fill="none" xmlns="http://www.w3.org/2000/svg">
<g clip-path="url(#clip0_102_292)">
<rect x="16" y="161" width="629" height="215" rx="9" fill="black" fill-opacity="0.5"/>
<path fill-rule="evenodd" clip-rule="evenodd" d="M236.741 32.7184C237.807 32.4284 238.906 33.0573 239.196 34.1231L244.59 53.9484C268.516 52.2447 325.694 55.6394 350.738 57.1263C353.206 57.2729 355.363 57.4009 357.144 57.5037C383.057 58.9986 482.501 60.0384 577.173 60.183C624.487 60.2552 670.572 60.1038 705.628 59.6748C723.158 59.4603 737.918 59.1765 748.69 58.8171C754.079 58.6374 758.451 58.4393 761.665 58.223C763.273 58.1147 764.57 58.0033 765.548 57.8902C766.592 57.7694 767.093 57.6652 767.232 57.6202L768.768 62.3788C768.102 62.5936 767.146 62.7387 766.122 62.8571C765.032 62.9832 763.647 63.1009 762 63.2117C758.703 63.4336 754.267 63.6339 748.857 63.8144C738.032 64.1755 723.231 64.4598 705.689 64.6745C670.6 65.1038 624.49 65.2552 577.165 65.183C482.558 65.0385 382.943 64.0004 356.856 62.4954C355.061 62.3918 352.902 62.2637 350.439 62.1177C325.383 60.6319 268.929 57.2843 245.231 58.9157C244.972 59.3041 244.577 59.6041 244.092 59.7362C243.026 60.0262 241.927 59.3973 241.637 58.3314L241.375 57.3691C241.663 58.4341 241.035 59.5317 239.97 59.8214C238.904 60.1114 237.805 59.4825 237.515 58.4166L237.253 57.4539C237.541 58.519 236.913 59.6168 235.847 59.9066C234.782 60.1966 233.682 59.5677 233.392 58.5018L233.131 57.539C233.419 58.6042 232.79 59.702 231.725 59.9918C230.659 60.2818 229.56 59.6528 229.27 58.587L229.008 57.6247C229.297 58.6897 228.668 59.7873 227.603 60.077C226.537 60.367 225.438 59.738 225.148 58.6722L224.886 57.7099C225.174 58.7749 224.546 59.8725 223.481 60.1622C222.415 60.4522 221.316 59.8232 221.026 58.7574L220.764 57.7951C221.052 58.8601 220.423 59.9576 219.358 60.2474C218.293 60.5374 217.194 59.9084 216.904 58.8426L216.642 57.8803C216.93 58.9453 216.301 60.0428 215.236 60.3326C214.17 60.6226 213.071 59.9936 212.781 58.9278L212.519 57.9629C212.809 59.0287 212.18 60.1278 211.114 60.4178C210.048 60.7078 208.949 60.0788 208.659 59.013L208.397 58.0502C208.686 59.1153 208.057 60.2132 206.992 60.503C205.926 60.7929 204.827 60.164 204.537 59.0982L204.275 58.1359C204.563 59.2009 203.935 60.2984 202.87 60.5882C201.804 60.8781 200.705 60.2492 200.415 59.1834L200.153 58.2211C200.441 59.2861 199.812 60.3836 198.747 60.6734C197.682 60.9633 196.582 60.3344 196.292 59.2686L196.031 58.3062C196.319 59.3713 195.69 60.4688 194.625 60.7585C193.559 61.0485 192.46 60.4196 192.17 59.3538L191.908 58.3914C192.197 59.4565 191.568 60.554 190.503 60.8437C189.437 61.1337 188.338 60.5048 188.048 59.4389L187.785 58.474C188.075 59.5398 187.447 60.6389 186.381 60.9289C185.315 61.2189 184.216 60.59 183.926 59.5241L183.664 58.5614C183.952 59.6265 183.324 60.7243 182.258 61.0141C181.193 61.3041 180.094 60.6752 179.804 59.6093L179.542 58.6465C179.83 59.7117 179.201 60.8095 178.136 61.0993C177.07 61.3893 175.971 60.7604 175.681 59.6945L175.42 58.7322C175.708 59.7972 175.079 60.8948 174.014 61.1845C172.948 61.4745 171.849 60.8455 171.559 59.7797L171.297 58.8174C171.586 59.8824 170.957 60.98 169.892 61.2697C168.826 61.5597 167.727 60.9307 167.437 59.8649L167.175 58.9026C167.463 59.9676 166.835 61.0651 165.77 61.3549C164.704 61.6449 163.605 61.0159 163.315 59.9501L163.052 58.9852C163.342 60.051 162.713 61.1501 161.647 61.4401C160.582 61.7301 159.482 61.1011 159.192 60.0353L158.93 59.0725C159.219 60.1377 158.59 61.2355 157.525 61.5253C156.459 61.8153 155.36 61.1863 155.07 60.1205L154.808 59.1577C155.097 60.2228 154.468 61.3207 153.403 61.6105C152.337 61.9005 151.238 61.2715 150.948 60.2057L150.686 59.2434C150.974 60.3084 150.346 61.4059 149.281 61.6957C148.215 61.9856 147.116 61.3567 146.826 60.2909L146.08 57.5482C115.357 58.9987 97.2356 71.9033 86.9061 87.2933C76.3541 103.015 73.7754 121.578 74.6613 133.82L72.1678 134H79V158H66V134H69.6615C68.752 120.908 71.5 101.275 82.7545 84.5068C93.8795 67.9317 113.167 54.3906 144.736 52.6111L140.525 37.1327C140.235 36.0669 140.864 34.9678 141.93 34.6778C142.996 34.3878 144.095 35.0168 144.385 36.0826L144.646 37.0443C144.359 35.9794 144.987 34.8823 146.052 34.5926C147.118 34.3026 148.217 34.9316 148.507 35.9974L148.77 36.9623C148.48 35.8965 149.108 34.7974 150.174 34.5074C151.24 34.2174 152.339 34.8464 152.629 35.9122L152.891 36.875C152.603 35.8098 153.231 34.712 154.297 34.4222C155.362 34.1322 156.461 34.7612 156.751 35.827L157.013 36.7898C156.725 35.7246 157.354 34.6268 158.419 34.337C159.485 34.047 160.584 34.676 160.874 35.7418L161.135 36.7041C160.847 35.6391 161.476 34.5416 162.541 34.2518C163.607 33.9618 164.706 34.5908 164.996 35.6566L165.258 36.6189C164.969 35.5539 165.598 34.4564 166.663 34.1666C167.729 33.8767 168.828 34.5056 169.118 35.5714L169.38 36.5337C169.092 35.4687 169.72 34.3712 170.785 34.0814C171.851 33.7915 172.95 34.4204 173.24 35.4862L173.503 36.4512C173.213 35.3853 173.842 34.2862 174.908 33.9962C175.973 33.7063 177.073 34.3352 177.363 35.401L177.625 36.3638C177.336 35.2987 177.965 34.2008 179.03 33.9111C180.096 33.6211 181.195 34.25 181.485 35.3158L181.747 36.2786C181.458 35.2135 182.087 34.1156 183.152 33.8259C184.218 33.5359 185.317 34.1648 185.607 35.2307L185.869 36.193C185.581 35.128 186.209 34.0304 187.274 33.7407C188.34 33.4507 189.439 34.0796 189.729 35.1455L189.991 36.1078C189.703 35.0428 190.332 33.9452 191.397 33.6555C192.462 33.3655 193.561 33.9944 193.851 35.0603L194.113 36.0226C193.825 34.9576 194.454 33.86 195.519 33.5703C196.585 33.2803 197.684 33.9093 197.974 34.9751L198.235 35.9374C197.947 34.8724 198.576 33.7748 199.641 33.4851C200.707 33.1951 201.806 33.8241 202.096 34.8899L202.358 35.8527C202.069 34.7875 202.698 33.6897 203.763 33.3999C204.829 33.1099 205.928 33.7389 206.218 34.8047L206.48 35.7675C206.192 34.7023 206.82 33.6045 207.885 33.3147C208.951 33.0247 210.05 33.6537 210.34 34.7195L210.602 35.6818C210.314 34.6168 210.943 33.5193 212.008 33.2295C213.074 32.9395 214.173 33.5685 214.463 34.6343L214.724 35.5966C214.436 34.5316 215.065 33.4341 216.13 33.1443C217.196 32.8543 218.295 33.4833 218.585 34.5491L218.847 35.5114C218.558 34.4464 219.187 33.3489 220.252 33.0591C221.318 32.7691 222.417 33.3981 222.707 34.4639L222.969 35.4262C222.681 34.3612 223.309 33.2637 224.374 32.9739C225.44 32.684 226.539 33.3129 226.829 34.3787L227.092 35.3437C226.802 34.2778 227.431 33.1787 228.497 32.8887C229.562 32.5988 230.661 33.2277 230.951 34.2935L231.213 35.2563C230.925 34.1912 231.554 33.0933 232.619 32.8036C233.685 32.5136 234.784 33.1425 235.074 34.2083L235.336 35.1707C235.047 34.1056 235.676 33.0081 236.741 32.7184Z" fill="black" fill-opacity="0.5"/>
<path d="M230 46.4995C255.5 44.4995 322.807 48.8345 343 49.9995C395 52.9995 741.117 54.1554 754 49.9995" stroke="#FC4F4F" stroke-width="5"/>
<rect y="148" width="629" height="215" rx="9" fill="#363636"/>
<rect x="5" y="153" width="619" height="205" rx="7" fill="black"/>
<rect x="49" y="158" width="34" height="35" rx="5" fill="#D9D9D9"/>
<rect x="88" y="158" width="34" height="35" rx="5" fill="#D9D9D9"/>
<rect x="127" y="158" width="34" height="35" rx="5" fill="#D9D9D9"/>
<rect x="166" y="158" width="34" height="35" rx="5" fill="#D9D9D9"/>
<rect x="205" y="158" width="34" height="35" rx="5" fill="#D9D9D9"/>
<rect x="244" y="158" width="34" height="35" rx="5" fill="#D9D9D9"/>
<rect x="283" y="158" width="34" height="35" rx="5" fill="#D9D9D9"/>
<rect x="322" y="158" width="34" height="35" rx="5" fill="#D9D9D9"/>
<rect x="361" y="158" width="34" height="35" rx="5" fill="#D9D9D9"/>
<rect x="400" y="158" width="34" height="35" rx="5" fill="#D9D9D9"/>
<rect x="439" y="158" width="34" height="35" rx="5" fill="#D9D9D9"/>
<rect x="478" y="158" width="34" height="35" rx="5" fill="#D9D9D9"/>
<rect x="88" y="238" width="34" height="35" rx="5" fill="#D9D9D9"/>
<rect x="127" y="238" width="34" height="35" rx="5" fill="#D9D9D9"/>
<rect x="166" y="238" width="34" height="35" rx="5" fill="#D9D9D9"/>
<rect x="205" y="238" width="34" height="35" rx="5" fill="#D9D9D9"/>
<rect x="244" y="238" width="34" height="35" rx="5" fill="#D9D9D9"/>
<rect x="283" y="238" width="34" height="35" rx="5" fill="#D9D9D9"/>
<rect x="322" y="238" width="34" height="35" rx="5" fill="#D9D9D9"/>
<rect x="361" y="238" width="34" height="35" rx="5" fill="#D9D9D9"/>
<rect x="400" y="238" width="34" height="35" rx="5" fill="#D9D9D9"/>
<rect x="439" y="238" width="34" height="35" rx="5" fill="#D9D9D9"/>
<rect x="478" y="238" width="34" height="35" rx="5" fill="#D9D9D9"/>
<rect x="110" y="278" width="34" height="35" rx="5" fill="#D9D9D9"/>
<rect x="151" y="318" width="279" height="35" rx="5" fill="#D9D9D9"/>
<rect x="149" y="278" width="34" height="35" rx="5" fill="#D9D9D9"/>
<rect x="188" y="278" width="34" height="35" rx="5" fill="#D9D9D9"/>
<rect x="227" y="278" width="34" height="35" rx="5" fill="#D9D9D9"/>
<rect x="266" y="278" width="34" height="35" rx="5" fill="#D9D9D9"/>
<rect x="305" y="278" width="34" height="35" rx="5" fill="#D9D9D9"/>
<rect x="344" y="278" width="34" height="35" rx="5" fill="#D9D9D9"/>
<rect x="383" y="278" width="34" height="35" rx="5" fill="#D9D9D9"/>
<rect x="422" y="278" width="34" height="35" rx="5" fill="#D9D9D9"/>
<rect x="461" y="278" width="34" height="35" rx="5" fill="#D9D9D9"/>
<rect x="74" y="198" width="34" height="35" rx="5" fill="#D9D9D9"/>
<rect x="115" y="198" width="34" height="35" rx="5" fill="#D9D9D9"/>
<rect x="154" y="198" width="34" height="35" rx="5" fill="#D9D9D9"/>
<rect x="193" y="198" width="34" height="35" rx="5" fill="#D9D9D9"/>
<rect x="232" y="198" width="34" height="35" rx="5" fill="#D9D9D9"/>
<rect x="271" y="198" width="34" height="35" rx="5" fill="#D9D9D9"/>
<rect x="310" y="198" width="34" height="35" rx="5" fill="#D9D9D9"/>
<rect x="349" y="198" width="34" height="35" rx="5" fill="#D9D9D9"/>
<rect x="388" y="198" width="34" height="35" rx="5" fill="#D9D9D9"/>
<rect x="427" y="198" width="34" height="35" rx="5" fill="#D9D9D9"/>
<rect x="466" y="198" width="34" height="35" rx="5" fill="#D9D9D9"/>
<rect x="505" y="198" width="34" height="35" rx="5" fill="#D9D9D9"/>
<rect x="10" y="158" width="34" height="35" rx="5" fill="#817676"/>
<rect x="517" y="158" width="102" height="35" rx="5" fill="#817676"/>
<rect x="10" y="238" width="73" height="35" rx="5" fill="#817676"/>
<rect x="517" y="238" width="102" height="35" rx="5" fill="#817676"/>
<rect x="10" y="278" width="95" height="35" rx="5" fill="#817676"/>
<rect x="10" y="318" width="42" height="35" rx="5" fill="#817676"/>
<rect x="57" y="318" width="42" height="35" rx="5" fill="#817676"/>
<rect x="104" y="318" width="42" height="35" rx="5" fill="#817676"/>
<rect x="483" y="318" width="42" height="35" rx="5" fill="#817676"/>
<rect x="436" y="318" width="42" height="35" rx="5" fill="#817676"/>
<rect x="530" y="318" width="42" height="35" rx="5" fill="#817676"/>
<rect x="577" y="318" width="42" height="35" rx="5" fill="#817676"/>
<rect x="500" y="278" width="119" height="35" rx="5" fill="#817676"/>
<rect x="10" y="198" width="58" height="35" rx="5" fill="#817676"/>
<rect x="544" y="198" width="75" height="35" rx="5" fill="#817676"/>
<path d="M58.1678 124C56.3345 98.6667 68.7678 47.4 133.168 45" stroke="#FC4F4F" stroke-width="5"/>
<rect x="52" y="124" width="13" height="24" fill="#D9D9D9"/>
<path d="M126.525 27.1327C126.235 26.0668 126.864 24.9677 127.93 24.6778V24.6778L135.281 51.6956V51.6956C134.215 51.9856 133.116 51.3567 132.826 50.2908L126.525 27.1327Z" fill="#FC4F4F"/>
<path d="M130.385 26.0826C130.095 25.0167 128.996 24.3878 127.93 24.6778V24.6778L135.281 51.6956V51.6956C136.347 51.4057 136.975 50.3066 136.685 49.2407L130.385 26.0826Z" fill="#D54444"/>
<path d="M130.647 27.0475C130.357 25.9816 130.986 24.8825 132.052 24.5926V24.5926L139.403 51.6104V51.6104C138.337 51.9004 137.238 51.2715 136.948 50.2056L130.647 27.0475Z" fill="#FC4F4F"/>
<path d="M134.507 25.9974C134.217 24.9315 133.118 24.3026 132.052 24.5926V24.5926L139.403 51.6104V51.6104C140.469 51.3205 141.098 50.2214 140.808 49.1555L134.507 25.9974Z" fill="#D54444"/>
<path d="M134.77 26.9623C134.48 25.8964 135.108 24.7973 136.174 24.5074V24.5074L143.525 51.5252V51.5252C142.459 51.8152 141.36 51.1863 141.07 50.1204L134.77 26.9623Z" fill="#FC4F4F"/>
<path d="M138.629 25.9121C138.339 24.8463 137.24 24.2174 136.174 24.5074V24.5074L143.525 51.5252V51.5252C144.591 51.2352 145.22 50.1362 144.93 49.0703L138.629 25.9121Z" fill="#D54444"/>
<path d="M138.892 26.8771C138.602 25.8113 139.231 24.7122 140.297 24.4222V24.4222L147.647 51.4401V51.4401C146.582 51.7301 145.482 51.1011 145.192 50.0353L138.892 26.8771Z" fill="#FC4F4F"/>
<path d="M142.751 25.827C142.461 24.7612 141.362 24.1322 140.297 24.4222V24.4222L147.647 51.4401V51.4401C148.713 51.1501 149.342 50.051 149.052 48.9852L142.751 25.827Z" fill="#D54444"/>
<path d="M143.014 26.7919C142.724 25.7261 143.353 24.627 144.419 24.337V24.337L151.77 51.3549V51.3549C150.704 51.6449 149.605 51.0159 149.315 49.9501L143.014 26.7919Z" fill="#FC4F4F"/>
<path d="M146.874 25.7418C146.584 24.676 145.485 24.047 144.419 24.337V24.337L151.77 51.3549V51.3549C152.835 51.0649 153.464 49.9658 153.174 48.9L146.874 25.7418Z" fill="#D54444"/>
<path d="M147.136 26.7067C146.846 25.6409 147.475 24.5418 148.541 24.2518V24.2518L155.892 51.2697V51.2697C154.826 51.5597 153.727 50.9307 153.437 49.8649L147.136 26.7067Z" fill="#FC4F4F"/>
<path d="M150.996 25.6566C150.706 24.5908 149.607 23.9618 148.541 24.2518V24.2518L155.892 51.2697V51.2697C156.958 50.9797 157.587 49.8806 157.297 48.8148L150.996 25.6566Z" fill="#D54444"/>
<path d="M151.258 26.6215C150.968 25.5557 151.597 24.4566 152.663 24.1666V24.1666L160.014 51.1845V51.1845C158.948 51.4744 157.849 50.8455 157.559 49.7797L151.258 26.6215Z" fill="#FC4F4F"/>
<path d="M155.118 25.5714C154.828 24.5056 153.729 23.8766 152.663 24.1666V24.1666L160.014 51.1845V51.1845C161.08 50.8945 161.709 49.7954 161.419 48.7296L155.118 25.5714Z" fill="#D54444"/>
<path d="M155.381 26.5363C155.091 25.4705 155.72 24.3714 156.785 24.0814V24.0814L164.136 51.0993V51.0993C163.07 51.3892 161.971 50.7603 161.681 49.6945L155.381 26.5363Z" fill="#FC4F4F"/>
<path d="M159.24 25.4862C158.95 24.4204 157.851 23.7914 156.785 24.0814V24.0814L164.136 51.0993V51.0993C165.202 50.8093 165.831 49.7102 165.541 48.6444L159.24 25.4862Z" fill="#D54444"/>
<path d="M159.503 26.4512C159.213 25.3853 159.842 24.2862 160.908 23.9962V23.9962L168.258 51.0141V51.0141C167.193 51.3041 166.094 50.6752 165.804 49.6093L159.503 26.4512Z" fill="#FC4F4F"/>
<path d="M163.363 25.401C163.073 24.3352 161.974 23.7063 160.908 23.9962V23.9962L168.258 51.0141V51.0141C169.324 50.7241 169.953 49.625 169.663 48.5592L163.363 25.401Z" fill="#D54444"/>
<path d="M163.625 26.3659C163.335 25.3001 163.964 24.201 165.03 23.911V23.911L172.381 50.9289V50.9289C171.315 51.2189 170.216 50.5899 169.926 49.5241L163.625 26.3659Z" fill="#FC4F4F"/>
<path d="M167.485 25.3158C167.195 24.25 166.096 23.6211 165.03 23.911V23.911L172.381 50.9289V50.9289C173.447 50.6389 174.075 49.5398 173.786 48.474L167.485 25.3158Z" fill="#D54444"/>
<path d="M167.747 26.2807C167.457 25.2149 168.086 24.1158 169.152 23.8258V23.8258L176.503 50.8437V50.8437C175.437 51.1337 174.338 50.5047 174.048 49.4389L167.747 26.2807Z" fill="#FC4F4F"/>
<path d="M171.607 25.2306C171.317 24.1648 170.218 23.5359 169.152 23.8258V23.8258L176.503 50.8437V50.8437C177.569 50.5537 178.198 49.4546 177.908 48.3888L171.607 25.2306Z" fill="#D54444"/>
<path d="M171.87 26.1955C171.58 25.1297 172.209 24.0306 173.274 23.7406V23.7406L180.625 50.7585V50.7585C179.559 51.0485 178.46 50.4195 178.17 49.3537L171.87 26.1955Z" fill="#FC4F4F"/>
<path d="M175.729 25.1454C175.439 24.0796 174.34 23.4507 173.274 23.7406V23.7406L180.625 50.7585V50.7585C181.691 50.4685 182.32 49.3694 182.03 48.3036L175.729 25.1454Z" fill="#D54444"/>
<path d="M175.992 26.1103C175.702 25.0445 176.331 23.9454 177.397 23.6554V23.6554L184.747 50.6733V50.6733C183.682 50.9633 182.582 50.3343 182.292 49.2685L175.992 26.1103Z" fill="#FC4F4F"/>
<path d="M179.851 25.0602C179.561 23.9944 178.462 23.3654 177.397 23.6554V23.6554L184.747 50.6733V50.6733C185.813 50.3833 186.442 49.2842 186.152 48.2184L179.851 25.0602Z" fill="#D54444"/>
<path d="M180.114 26.0252C179.824 24.9594 180.453 23.8603 181.519 23.5703V23.5703L188.87 50.5882V50.5882C187.804 50.8781 186.705 50.2492 186.415 49.1834L180.114 26.0252Z" fill="#FC4F4F"/>
<path d="M183.974 24.9751C183.684 23.9093 182.585 23.2803 181.519 23.5703V23.5703L188.87 50.5882V50.5882C189.935 50.2982 190.564 49.1991 190.274 48.1333L183.974 24.9751Z" fill="#D54444"/>
<path d="M184.236 25.94C183.946 24.8742 184.575 23.7751 185.641 23.4851V23.4851L192.992 50.5029V50.5029C191.926 50.7929 190.827 50.164 190.537 49.0982L184.236 25.94Z" fill="#FC4F4F"/>
<path d="M188.096 24.8899C187.806 23.824 186.707 23.1951 185.641 23.4851V23.4851L192.992 50.503V50.503C194.058 50.213 194.687 49.1139 194.397 48.048L188.096 24.8899Z" fill="#D54444"/>
<path d="M188.358 25.8548C188.068 24.7889 188.697 23.6899 189.763 23.3999V23.3999L197.114 50.4177V50.4177C196.048 50.7077 194.949 50.0788 194.659 49.013L188.358 25.8548Z" fill="#FC4F4F"/>
<path d="M192.218 24.8047C191.928 23.7388 190.829 23.1099 189.763 23.3999V23.3999L197.114 50.4177V50.4177C198.18 50.1278 198.809 49.0287 198.519 47.9628L192.218 24.8047Z" fill="#D54444"/>
<path d="M192.481 25.7696C192.191 24.7037 192.82 23.6046 193.885 23.3147V23.3147L201.236 50.3325V50.3325C200.17 50.6225 199.071 49.9936 198.781 48.9277L192.481 25.7696Z" fill="#FC4F4F"/>
<path d="M196.34 24.7195C196.05 23.6536 194.951 23.0247 193.885 23.3147V23.3147L201.236 50.3325V50.3325C202.302 50.0426 202.931 48.9435 202.641 47.8776L196.34 24.7195Z" fill="#D54444"/>
<path d="M196.603 25.6844C196.313 24.6185 196.942 23.5194 198.008 23.2295V23.2295L205.359 50.2473V50.2473C204.293 50.5373 203.194 49.9084 202.904 48.8425L196.603 25.6844Z" fill="#FC4F4F"/>
<path d="M200.463 24.6343C200.173 23.5684 199.074 22.9395 198.008 23.2295V23.2295L205.358 50.2473V50.2473C206.424 49.9574 207.053 48.8583 206.763 47.7924L200.463 24.6343Z" fill="#D54444"/>
<path d="M200.725 25.5992C200.435 24.5334 201.064 23.4343 202.13 23.1443V23.1443L209.481 50.1622V50.1622C208.415 50.4522 207.316 49.8232 207.026 48.7574L200.725 25.5992Z" fill="#FC4F4F"/>
<path d="M204.585 24.5491C204.295 23.4833 203.196 22.8543 202.13 23.1443V23.1443L209.481 50.1622V50.1622C210.547 49.8722 211.175 48.7731 210.886 47.7073L204.585 24.5491Z" fill="#D54444"/>
<path d="M204.847 25.514C204.557 24.4482 205.186 23.3491 206.252 23.0591V23.0591L213.603 50.077V50.077C212.537 50.367 211.438 49.738 211.148 48.6722L204.847 25.514Z" fill="#FC4F4F"/>
<path d="M208.707 24.4639C208.417 23.3981 207.318 22.7691 206.252 23.0591V23.0591L213.603 50.077V50.077C214.669 49.787 215.298 48.6879 215.008 47.6221L208.707 24.4639Z" fill="#D54444"/>
<path d="M208.97 25.4288C208.68 24.363 209.309 23.2639 210.374 22.9739V22.9739L217.725 49.9918V49.9918C216.659 50.2818 215.56 49.6528 215.27 48.587L208.97 25.4288Z" fill="#FC4F4F"/>
<path d="M212.829 24.3787C212.539 23.3129 211.44 22.6839 210.374 22.9739V22.9739L217.725 49.9918V49.9918C218.791 49.7018 219.42 48.6027 219.13 47.5369L212.829 24.3787Z" fill="#D54444"/>
<path d="M213.092 25.3436C212.802 24.2778 213.431 23.1787 214.497 22.8887V22.8887L221.847 49.9066V49.9066C220.782 50.1966 219.682 49.5676 219.392 48.5018L213.092 25.3436Z" fill="#FC4F4F"/>
<path d="M216.951 24.2935C216.661 23.2277 215.562 22.5987 214.497 22.8887V22.8887L221.847 49.9066V49.9066C222.913 49.6166 223.542 48.5175 223.252 47.4517L216.951 24.2935Z" fill="#D54444"/>
<path d="M217.214 25.2584C216.924 24.1926 217.553 23.0935 218.619 22.8035V22.8035L225.97 49.8214V49.8214C224.904 50.1113 223.805 49.4824 223.515 48.4166L217.214 25.2584Z" fill="#FC4F4F"/>
<path d="M221.074 24.2083C220.784 23.1425 219.685 22.5135 218.619 22.8035V22.8035L225.97 49.8214V49.8214C227.035 49.5314 227.664 48.4323 227.374 47.3665L221.074 24.2083Z" fill="#D54444"/>
<path d="M221.336 25.1733C221.046 24.1074 221.675 23.0083 222.741 22.7183V22.7183L230.092 49.7362V49.7362C229.026 50.0262 227.927 49.3973 227.637 48.3314L221.336 25.1733Z" fill="#FC4F4F"/>
<path d="M225.196 24.1231C224.906 23.0573 223.807 22.4284 222.741 22.7184V22.7184L230.092 49.7362V49.7362C231.158 49.4462 231.787 48.3471 231.497 47.2813L225.196 24.1231Z" fill="#D54444"/>
</g>
<defs>
<clipPath id="clip0_102_292">
<rect width="747" height="376" fill="white"/>
</clipPath>
</defs>
</svg>
