<svg width="507" height="555" viewBox="0 0 507 555" fill="none" xmlns="http://www.w3.org/2000/svg">
<path fill-rule="evenodd" clip-rule="evenodd" d="M366 242V241V228V227V226V224V220V219V218V216V215V214V204H197V214V215V216V218V219V220V224V226V227V228V241V242V307H204H204.199C207.188 301.632 212.92 298 219.5 298H267L267 316L267 374V376H266.973C266.237 403.681 250.28 425.936 230.434 426.963L230.397 427H229H211V462V483V522H230.762C242.658 537.218 261.187 547 282 547C302.813 547 321.342 537.218 333.238 522H353V427H334.323L334.322 426.998C334.214 426.999 334.107 427 334 427C313.493 427 296.781 404.344 296.027 376H296V374V298H344.5C351.08 298 356.812 301.632 359.801 307H360H366V242ZM282 532C309.614 532 332 509.614 332 482C332 475.096 330.601 468.52 328.071 462.538C327.438 461.042 326.735 459.584 325.965 458.167C317.498 442.581 300.985 432 282 432C261.497 432 243.876 444.341 236.16 462C236.082 462.179 236.005 462.358 235.929 462.538C233.399 468.52 232 475.096 232 482C232 483.346 232.053 484.681 232.158 486C232.187 486.372 232.221 486.743 232.258 487.112C234.819 512.325 256.112 532 282 532Z" fill="black" fill-opacity="0.5"/>
<path fill-rule="evenodd" clip-rule="evenodd" d="M282 271H253V364V366H252.973C252.237 393.681 236.28 415.936 216.434 416.963L216.397 417H215H197V512H216.762C228.658 527.218 247.187 537 268 537C288.813 537 307.342 527.218 319.238 512H339V417H320.323L320.322 416.998C320.214 416.999 320.107 417 320 417C299.493 417 282.781 394.344 282.027 366H282V364V271ZM268 522C295.614 522 318 499.614 318 472C318 444.386 295.614 422 268 422C240.386 422 218 444.386 218 472C218 499.614 240.386 522 268 522Z" fill="#797979"/>
<path fill-rule="evenodd" clip-rule="evenodd" d="M352 194H183V297H190.199C193.188 291.632 198.92 288 205.5 288H330.5C337.08 288 342.812 291.632 345.801 297H352V194Z" fill="#6A5B5B"/>
<path d="M283 262C283 270.284 276.284 277 268 277C259.716 277 253 270.284 253 262C253 253.716 259.716 247 268 247C276.284 247 283 253.716 283 262Z" fill="#383838"/>
<path d="M283 262C283 270.284 276.284 277 268 277C259.716 277 253 270.284 253 262C253 253.716 259.716 247 268 247C276.284 247 283 253.716 283 262Z" fill="#383838"/>
<path d="M278 262C278 267.523 273.523 272 268 272C262.477 272 258 267.523 258 262C258 256.477 262.477 252 268 252C273.523 252 278 256.477 278 262Z" fill="#141414"/>
<line x1="183" y1="231.5" x2="352" y2="231.5" stroke="black" stroke-opacity="0.8"/>
<path d="M352 231V297H346V231H352Z" fill="#282828" fill-opacity="0.7"/>
<path d="M190 232V297H183V232H190Z" fill="#282828" fill-opacity="0.7"/>
<mask id="path-9-inside-1_104_375" fill="white">
<path fill-rule="evenodd" clip-rule="evenodd" d="M298.023 282C301.183 276.741 303 270.583 303 264C303 253.812 298.647 244.64 291.699 238.244C292.58 237.47 293.735 237 295 237H338C340.761 237 343 239.239 343 242V277C343 279.761 340.761 282 338 282H298.023Z"/>
</mask>
<path fill-rule="evenodd" clip-rule="evenodd" d="M298.023 282C301.183 276.741 303 270.583 303 264C303 253.812 298.647 244.64 291.699 238.244C292.58 237.47 293.735 237 295 237H338C340.761 237 343 239.239 343 242V277C343 279.761 340.761 282 338 282H298.023Z" fill="url(#paint0_diamond_104_375)"/>
<path d="M298.023 282L295.451 280.455L292.72 285H298.023V282ZM291.699 238.244L289.718 235.992L287.215 238.193L289.667 240.451L291.699 238.244ZM300 264C300 270.023 298.339 275.649 295.451 280.455L300.594 283.545C304.027 277.832 306 271.142 306 264H300ZM289.667 240.451C296.024 246.303 300 254.685 300 264H306C306 252.939 301.27 242.978 293.731 236.037L289.667 240.451ZM293.681 240.497C294.035 240.186 294.492 240 295 240V234C292.978 234 291.125 234.754 289.718 235.992L293.681 240.497ZM295 240H338V234H295V240ZM338 240C339.105 240 340 240.895 340 242H346C346 237.582 342.418 234 338 234V240ZM340 242V277H346V242H340ZM340 277C340 278.105 339.105 279 338 279V285C342.418 285 346 281.418 346 277H340ZM338 279H298.023V285H338V279Z" fill="black" fill-opacity="0.1" mask="url(#path-9-inside-1_104_375)"/>
<mask id="path-11-inside-2_104_375" fill="white">
<path fill-rule="evenodd" clip-rule="evenodd" d="M237.977 282C234.817 276.741 233 270.583 233 264C233 253.812 237.353 244.64 244.301 238.244C243.42 237.47 242.265 237 241 237H198C195.239 237 193 239.239 193 242V277C193 279.761 195.239 282 198 282H237.977Z"/>
</mask>
<path fill-rule="evenodd" clip-rule="evenodd" d="M237.977 282C234.817 276.741 233 270.583 233 264C233 253.812 237.353 244.64 244.301 238.244C243.42 237.47 242.265 237 241 237H198C195.239 237 193 239.239 193 242V277C193 279.761 195.239 282 198 282H237.977Z" fill="url(#paint1_diamond_104_375)"/>
<path d="M237.977 282L240.549 280.455L243.28 285H237.977V282ZM244.301 238.244L246.282 235.992L248.785 238.193L246.333 240.451L244.301 238.244ZM236 264C236 270.023 237.661 275.649 240.549 280.455L235.406 283.545C231.973 277.832 230 271.142 230 264H236ZM246.333 240.451C239.976 246.303 236 254.685 236 264H230C230 252.939 234.73 242.978 242.269 236.037L246.333 240.451ZM242.319 240.497C241.965 240.186 241.508 240 241 240V234C243.022 234 244.875 234.754 246.282 235.992L242.319 240.497ZM241 240H198V234H241V240ZM198 240C196.895 240 196 240.895 196 242H190C190 237.582 193.582 234 198 234V240ZM196 242V277H190V242H196ZM196 277C196 278.105 196.895 279 198 279V285C193.582 285 190 281.418 190 277H196ZM198 279H237.977V285H198V279Z" fill="black" fill-opacity="0.1" mask="url(#path-11-inside-2_104_375)"/>
<path fill-rule="evenodd" clip-rule="evenodd" d="M346 232H190C198.94 240.626 230.473 247 268 247C305.527 247 337.059 240.626 346 232Z" fill="black" fill-opacity="0.43"/>
<rect x="183" y="194" width="169" height="37" fill="url(#paint2_linear_104_375)"/>
<mask id="path-15-inside-3_104_375" fill="white">
<path fill-rule="evenodd" clip-rule="evenodd" d="M260.131 288H274.131V305.962V335.547V368.302H274.161C274.141 369.003 274.131 369.708 274.131 370.415C274.131 388.887 281.033 405.656 292.261 418C284.53 414.573 276.04 412.679 267.131 412.679C258.221 412.679 249.731 414.573 242 418C253.228 405.656 260.131 388.887 260.131 370.415C260.131 369.708 260.12 369.003 260.1 368.302H260.131V335.547V305.962V288Z"/>
</mask>
<path fill-rule="evenodd" clip-rule="evenodd" d="M260.131 288H274.131V305.962V335.547V368.302H274.161C274.141 369.003 274.131 369.708 274.131 370.415C274.131 388.887 281.033 405.656 292.261 418C284.53 414.573 276.04 412.679 267.131 412.679C258.221 412.679 249.731 414.573 242 418C253.228 405.656 260.131 388.887 260.131 370.415C260.131 369.708 260.12 369.003 260.1 368.302H260.131V335.547V305.962V288Z" fill="url(#paint3_radial_104_375)"/>
<path d="M274.131 288H277.131V285H274.131V288ZM260.131 288V285H257.131V288H260.131ZM274.131 368.302H271.131V371.302H274.131V368.302ZM274.161 368.302L277.159 368.387L277.248 365.302H274.161V368.302ZM292.261 418L291.045 420.743L294.48 415.981L292.261 418ZM242 418L239.781 415.981L243.216 420.743L242 418ZM260.1 368.302V365.302H257.013L257.102 368.387L260.1 368.302ZM260.131 368.302V371.302H263.131V368.302H260.131ZM274.131 285H260.131V291H274.131V285ZM277.131 305.962V288H271.131V305.962H277.131ZM277.131 335.547V305.962H271.131V335.547H277.131ZM277.131 368.302V335.547H271.131V368.302H277.131ZM274.161 365.302H274.131V371.302H274.161V365.302ZM277.131 370.415C277.131 369.736 277.14 369.061 277.159 368.387L271.162 368.216C271.141 368.946 271.131 369.679 271.131 370.415H277.131ZM294.48 415.981C283.749 404.184 277.131 388.132 277.131 370.415H271.131C271.131 389.642 278.317 407.129 290.042 420.019L294.48 415.981ZM267.131 415.679C275.61 415.679 283.687 417.48 291.045 420.743L293.477 415.257C285.373 411.665 276.47 409.679 267.131 409.679V415.679ZM243.216 420.743C250.574 417.48 258.651 415.679 267.131 415.679V409.679C257.791 409.679 248.888 411.665 240.784 415.257L243.216 420.743ZM257.131 370.415C257.131 388.132 250.512 404.184 239.781 415.981L244.219 420.019C255.944 407.129 263.131 389.642 263.131 370.415H257.131ZM257.102 368.387C257.121 369.061 257.131 369.736 257.131 370.415H263.131C263.131 369.679 263.12 368.946 263.099 368.216L257.102 368.387ZM260.131 365.302H260.1V371.302H260.131V365.302ZM257.131 335.547V368.302H263.131V335.547H257.131ZM257.131 305.962V335.547H263.131V305.962H257.131ZM257.131 288V305.962H263.131V288H257.131Z" fill="url(#paint4_radial_104_375)" mask="url(#path-15-inside-3_104_375)"/>
<path fill-rule="evenodd" clip-rule="evenodd" d="M282 288H253V306H260V302H274V306H282V288Z" fill="black" fill-opacity="0.38"/>
<g filter="url(#filter0_i_104_375)">
<rect x="183" y="204" width="169" height="6" fill="black" fill-opacity="0.51"/>
</g>
<g filter="url(#filter1_i_104_375)">
<rect x="183" y="214" width="169" height="4" fill="black" fill-opacity="0.51"/>
</g>
<line x1="183" y1="216.5" x2="352" y2="216.5" stroke="#C0C0C0"/>
<line x1="183" y1="205.5" x2="352" y2="205.5" stroke="#C0C0C0"/>
<line x1="183" y1="208.5" x2="352" y2="208.5" stroke="#C0C0C0"/>
<g filter="url(#filter2_d_104_375)">
<path fill-rule="evenodd" clip-rule="evenodd" d="M208.529 480C209.672 488.58 212.628 496.587 217 503.623V512H216.762C228.658 527.218 247.187 537 268 537C288.813 537 307.342 527.218 319.238 512H319V503.623C323.372 496.587 326.328 488.58 327.471 480H332L339 473V452H324.586C316.349 428.696 294.124 412 268 412C241.876 412 219.651 428.696 211.414 452H197V473L204 480H208.529ZM314.071 452.538C306.48 434.592 288.711 422 268 422C247.497 422 229.876 434.341 222.16 452C219.485 458.125 218 464.889 218 472C218 499.614 240.386 522 268 522C295.614 522 318 499.614 318 472C318 465.096 316.601 458.52 314.071 452.538Z" fill="url(#paint5_linear_104_375)"/>
</g>
<defs>
<filter id="filter0_i_104_375" x="183" y="204" width="169" height="10" filterUnits="userSpaceOnUse" color-interpolation-filters="sRGB">
<feFlood flood-opacity="0" result="BackgroundImageFix"/>
<feBlend mode="normal" in="SourceGraphic" in2="BackgroundImageFix" result="shape"/>
<feColorMatrix in="SourceAlpha" type="matrix" values="0 0 0 0 0 0 0 0 0 0 0 0 0 0 0 0 0 0 127 0" result="hardAlpha"/>
<feOffset dy="4"/>
<feGaussianBlur stdDeviation="2"/>
<feComposite in2="hardAlpha" operator="arithmetic" k2="-1" k3="1"/>
<feColorMatrix type="matrix" values="0 0 0 0 0 0 0 0 0 0 0 0 0 0 0 0 0 0 0.25 0"/>
<feBlend mode="normal" in2="shape" result="effect1_innerShadow_104_375"/>
</filter>
<filter id="filter1_i_104_375" x="183" y="214" width="169" height="8" filterUnits="userSpaceOnUse" color-interpolation-filters="sRGB">
<feFlood flood-opacity="0" result="BackgroundImageFix"/>
<feBlend mode="normal" in="SourceGraphic" in2="BackgroundImageFix" result="shape"/>
<feColorMatrix in="SourceAlpha" type="matrix" values="0 0 0 0 0 0 0 0 0 0 0 0 0 0 0 0 0 0 127 0" result="hardAlpha"/>
<feOffset dy="4"/>
<feGaussianBlur stdDeviation="2"/>
<feComposite in2="hardAlpha" operator="arithmetic" k2="-1" k3="1"/>
<feColorMatrix type="matrix" values="0 0 0 0 0 0 0 0 0 0 0 0 0 0 0 0 0 0 0.25 0"/>
<feBlend mode="normal" in2="shape" result="effect1_innerShadow_104_375"/>
</filter>
<filter id="filter2_d_104_375" x="193" y="412" width="150" height="133" filterUnits="userSpaceOnUse" color-interpolation-filters="sRGB">
<feFlood flood-opacity="0" result="BackgroundImageFix"/>
<feColorMatrix in="SourceAlpha" type="matrix" values="0 0 0 0 0 0 0 0 0 0 0 0 0 0 0 0 0 0 127 0" result="hardAlpha"/>
<feOffset dy="4"/>
<feGaussianBlur stdDeviation="2"/>
<feComposite in2="hardAlpha" operator="out"/>
<feColorMatrix type="matrix" values="0 0 0 0 0 0 0 0 0 0 0 0 0 0 0 0 0 0 0.25 0"/>
<feBlend mode="normal" in2="BackgroundImageFix" result="effect1_dropShadow_104_375"/>
<feBlend mode="normal" in="SourceGraphic" in2="effect1_dropShadow_104_375" result="shape"/>
</filter>
<radialGradient id="paint0_diamond_104_375" cx="0" cy="0" r="1" gradientUnits="userSpaceOnUse" gradientTransform="translate(320.5 259) rotate(48.5763) scale(34.0074 32.431)">
<stop stop-color="#6A5B5B"/>
<stop offset="1" stop-color="#544646"/>
</radialGradient>
<radialGradient id="paint1_diamond_104_375" cx="0" cy="0" r="1" gradientUnits="userSpaceOnUse" gradientTransform="translate(215.5 259) rotate(131.424) scale(34.0074 32.431)">
<stop stop-color="#6A5B5B"/>
<stop offset="1" stop-color="#544646"/>
</radialGradient>
<linearGradient id="paint2_linear_104_375" x1="183" y1="212" x2="352" y2="212" gradientUnits="userSpaceOnUse">
<stop stop-color="#413737"/>
<stop offset="0.502775" stop-color="#6A5B5B" stop-opacity="0.390625"/>
<stop offset="1" stop-color="#413737"/>
</linearGradient>
<radialGradient id="paint3_radial_104_375" cx="0" cy="0" r="1" gradientUnits="userSpaceOnUse" gradientTransform="translate(267.131 353) rotate(90.0763) scale(98.0001 10.4642)">
<stop stop-color="#747474"/>
<stop offset="1" stop-color="#5E5E5E"/>
</radialGradient>
<radialGradient id="paint4_radial_104_375" cx="0" cy="0" r="1" gradientUnits="userSpaceOnUse" gradientTransform="translate(267.131 353) rotate(90.0431) scale(173.5 232.916)">
<stop stop-color="#696969"/>
<stop offset="1"/>
</radialGradient>
<linearGradient id="paint5_linear_104_375" x1="268" y1="412" x2="310" y2="520.5" gradientUnits="userSpaceOnUse">
<stop stop-color="#989898"/>
<stop offset="1" stop-color="#8B8B8B"/>
</linearGradient>
</defs>
</svg>
